<svg width="20" height="20" viewBox="0 0 20 20" fill="none" xmlns="http://www.w3.org/2000/svg">
<path d="M17.2 14.9599C17.2 14.9599 17.16 14.8999 17.13 14.8699C16.21 13.8499 15.37 12.7499 14.63 11.5999C14.15 10.8499 13.72 10.0799 13.33 9.28988C13.31 9.25988 13.3 9.22988 13.28 9.19988C12.78 8.45988 12.2 7.92988 11.56 7.61988C9.36 6.55988 7.66 7.67988 6.8 9.07988C6.78 9.10988 6.76 9.13988 6.75 9.16988C6.33 9.99988 5.87 10.8199 5.37 11.5899C4.63 12.7399 3.79 13.8399 2.81 14.9399C2.45 15.4699 2.25 16.1399 2.25 16.8299C2.25 17.7699 2.62 18.6599 3.23 19.2199C3.7 19.6499 4.3 19.8599 4.89 19.7999C5.07 19.7799 5.26 19.7599 5.45 19.7299C6.95 19.4799 7.78 18.8799 8.45 18.3999C9 17.9999 9.37 17.7399 9.99 17.7399C10.61 17.7399 10.98 17.9999 11.53 18.3999C12.2 18.8799 13.03 19.4799 14.53 19.7299C14.72 19.7599 14.91 19.7899 15.1 19.7999C15.16 19.7999 15.23 19.7999 15.29 19.7999C15.82 19.7999 16.34 19.5899 16.76 19.2099C17.38 18.6499 17.74 17.7599 17.74 16.8199C17.74 16.4799 17.69 16.1399 17.6 15.8299C17.51 15.5199 17.37 15.2199 17.19 14.9399L17.2 14.9599ZM15.76 18.1299C15.6 18.2799 15.41 18.3399 15.25 18.3299C15.1 18.3199 14.95 18.2999 14.79 18.2699C13.63 18.0699 13.01 17.6299 12.41 17.1999C11.77 16.7399 11.1 16.2599 10 16.2599C8.9 16.2599 8.23 16.7399 7.59 17.1999C6.99 17.6299 6.37 18.0799 5.21 18.2699C5.05 18.2999 4.9 18.3199 4.76 18.3299C4.59 18.3499 4.41 18.2799 4.25 18.1299C3.95 17.8499 3.76 17.3599 3.76 16.8499C3.76 16.4599 3.87 16.0899 4 15.8799C4.97 14.7999 5.86 13.6299 6.64 12.4199C7.17 11.5999 7.66 10.7299 8.09 9.87988C8.58 9.07988 9.47 8.26988 10.92 8.97988C11.3 9.15988 11.68 9.51988 12.02 10.0099C12.43 10.8299 12.88 11.6399 13.38 12.4199C14.15 13.6199 15.02 14.7799 15.98 15.8399C16.07 15.9799 16.13 16.1299 16.18 16.2799C16.23 16.4599 16.26 16.6499 16.26 16.8499C16.26 17.3699 16.07 17.8599 15.77 18.1299H15.76Z" fill="#4E6177"/>
<path d="M5.4001 6.77018C5.7401 6.90018 6.0801 6.97018 6.4201 6.97018C6.8501 6.97018 7.2701 6.86018 7.6401 6.65018C8.2901 6.27018 8.7401 5.59018 8.8701 4.77018C8.9901 4.00018 8.8201 3.18018 8.4001 2.46018C7.5001 0.910176 5.7001 0.260176 4.3901 1.02018C3.0801 1.78018 2.7401 3.66018 3.6301 5.21018C4.0501 5.94018 4.6801 6.49018 5.4001 6.77018ZM5.1401 2.32018C5.2801 2.24018 5.4401 2.20018 5.6001 2.20018C6.1301 2.20018 6.7301 2.59018 7.0901 3.21018C7.3401 3.64018 7.4401 4.12018 7.3701 4.55018C7.3401 4.76018 7.2301 5.15018 6.8801 5.35018C6.5301 5.55018 6.1401 5.45018 5.9401 5.37018C5.5401 5.21018 5.1701 4.88018 4.9301 4.46018C4.4601 3.64018 4.5501 2.66018 5.1401 2.32018Z" fill="#4E6177"/>
<path d="M11.8901 6.64995C12.2601 6.86995 12.6801 6.96995 13.1001 6.96995C14.1601 6.96995 15.2601 6.31995 15.9001 5.20995C16.3201 4.47995 16.4801 3.65995 16.3701 2.89995C16.2501 2.07995 15.8001 1.39995 15.1401 1.01995C14.4901 0.639945 13.6701 0.599945 12.9001 0.899946C12.1801 1.17995 11.5501 1.73995 11.1301 2.45995C10.2301 4.00995 10.5701 5.88995 11.8901 6.64995ZM12.4301 3.20995C12.6801 2.77995 13.0501 2.44995 13.4401 2.29995C13.5501 2.25995 13.7301 2.19995 13.9201 2.19995C14.0701 2.19995 14.2301 2.22995 14.3801 2.31995C14.7301 2.51995 14.8401 2.90995 14.8701 3.11995C14.9401 3.53995 14.8301 4.02995 14.5901 4.45995C14.1201 5.27995 13.2201 5.68995 12.6301 5.34995C12.0401 5.00995 11.9501 4.02995 12.4201 3.20995H12.4301Z" fill="#4E6177"/>
<path d="M18.7099 6.94003C18.1699 6.63003 17.4999 6.59003 16.8699 6.84003C16.2899 7.07003 15.7899 7.51003 15.4499 8.09003C14.7299 9.34003 15.0099 10.87 16.0899 11.49C16.3999 11.67 16.7399 11.75 17.0899 11.75C17.9499 11.75 18.8399 11.23 19.3599 10.34C20.0799 9.09003 19.7999 7.56003 18.7199 6.94003H18.7099ZM18.0499 9.59003C17.7499 10.11 17.1799 10.39 16.8399 10.19C16.4899 9.99003 16.4499 9.36003 16.7499 8.84003C16.9099 8.56003 17.1599 8.34003 17.4199 8.24003C17.4899 8.21003 17.5899 8.18003 17.7099 8.18003C17.7899 8.18003 17.8799 8.20003 17.9599 8.24003C18.3099 8.44003 18.3499 9.07003 18.0499 9.59003Z" fill="#4E6177"/>
<path d="M3.99004 11.48C5.06004 10.86 5.35004 9.34002 4.63004 8.08002C3.91004 6.83002 2.44004 6.31002 1.37004 6.93002C0.300041 7.55002 0.0100412 9.07002 0.730041 10.33C1.24004 11.22 2.14004 11.74 2.99004 11.74C3.34004 11.74 3.68004 11.66 3.99004 11.48ZM2.03004 9.58002C1.73004 9.06002 1.77004 8.43002 2.12004 8.23002C2.20004 8.19002 2.28004 8.17002 2.38004 8.17002C2.71004 8.17002 3.10004 8.43002 3.34004 8.83002C3.64004 9.35002 3.60004 9.98002 3.25004 10.18C2.90004 10.38 2.34004 10.1 2.04004 9.58002H2.03004Z" fill="#4E6177"/>
</svg>
