<svg width="26" height="26" viewBox="0 0 26 26" fill="none" xmlns="http://www.w3.org/2000/svg">
<path d="M17.7606 3.65648C17.7606 3.51794 17.7055 3.38507 17.6076 3.28711C17.5096 3.18914 17.3767 3.13411 17.2382 3.13411H14.6264C13.3112 3.06859 12.0235 3.52629 11.0447 4.40721C10.0659 5.28812 9.47556 6.52063 9.40265 7.83544V8.04439C9.40265 9.48687 8.23329 10.6562 6.7908 10.6562C6.65226 10.6562 6.51939 10.7113 6.42143 10.8092C6.32347 10.9072 6.26843 11.0401 6.26843 11.1786V13.8949C6.26843 14.0335 6.32347 14.1663 6.42143 14.2643C6.51939 14.3623 6.65226 14.4173 6.7908 14.4173C8.23329 14.4173 9.40265 15.5867 9.40265 17.0292V21.4171C9.40265 21.5556 9.45769 21.6885 9.55565 21.7864C9.65361 21.8844 9.78648 21.9394 9.92502 21.9394H13.0592C13.1978 21.9394 13.3307 21.8844 13.4286 21.7864C13.5266 21.6885 13.5816 21.5556 13.5816 21.4171V17.1545C13.5816 15.6428 14.8071 14.4173 16.3188 14.4173C16.435 14.419 16.5484 14.3819 16.6411 14.3119C16.7338 14.2418 16.8006 14.1429 16.8308 14.0307L17.583 11.3144C17.6038 11.2372 17.6065 11.1563 17.5911 11.0779C17.5757 10.9994 17.5425 10.9256 17.4941 10.862C17.4456 10.7984 17.3832 10.7468 17.3117 10.7111C17.2402 10.6755 17.1614 10.6567 17.0815 10.6562H16.4024C14.8445 10.6562 13.5816 9.39332 13.5816 7.83544C13.6076 7.57684 13.729 7.33721 13.9222 7.16335C14.1154 6.98949 14.3665 6.89387 14.6264 6.89517H17.2382C17.3767 6.89517 17.5096 6.84014 17.6076 6.74217C17.7055 6.64421 17.7606 6.51134 17.7606 6.3728V3.65648Z" fill="white"/>
</svg>
